DataType=double
version=3
OpenSimVersion=4.5-2023-11-26-efcdfd3eb
endheader
time	EMG01_right_gast_med	EMG02_right_glut_max	EMG03_left_gast_med	EMG04_left_glut_max	EMG05_right_glut_med	EMG06_right_bic_fem	EMG07_right_rect_fem	EMG08_right_vast_lat	EMG09_right_vast_med	EMG10_right_tens_fasc_lat	EMG11_left_glut_med	EMG12_left_bic_fem	EMG13_left_rect_fem	EMG14_left_vast_lat	EMG15_left_vast_med	EMG16_left_tens_fasc_lat
1.28	141.8273253803792	8.60718747044605	14.28554593082444	43.02912392112103	95.8709300767684	12.65544548113227	9.549686374266386	4.904151891809062	7.536319304428922	24.17424433622131	16.90953071488108	29.81778847929292	18.34357630909549	20.10104093296712	30.28824652456828	70.29699173791032
1.29	137.8160543459017	10.21112237691705	15.35868147876218	43.16239381344499	103.5199262304288	12.44412073145691	9.928086855089118	5.327775446658695	8.96138706931665	25.85848676813876	17.40427835119668	30.7868942824718	19.13221449088199	21.12233602119338	33.40165026706756	71.89204744558555
1.3	133.1914720122868	12.01388598494722	16.43976297769929	43.37030321928425	111.0701389468102	12.21076614652423	10.27960877618394	5.76861114695263	10.48779276193293	27.59690712898885	17.85472207629328	31.62841626359463	19.85672148696074	22.09699513528092	36.57952807603576	73.49070303458805
1.31	128.0048950124103	14.00429235689929	17.52931730526954	43.64005729384944	118.4323193119385	11.9598068312546	10.599871188541	6.220803814873683	12.09574481488371	29.37230769300238	18.25733095279746	32.33080079431829	20.50955537173119	23.01387428017829	39.78996619267497	75.07907818955837
1.32	122.3142678157196	16.16866193730838	18.62757597370723	43.95816658776405	125.5175464333558	11.69591738240575	10.88490680438445	6.678429608542385	13.76443773759677	31.1671262173302	18.60908548855425	32.88404756502377	21.08393420294313	23.86234573167374	43.00013544238084	76.6448473368923
1.33	116.1830456974699	18.49084734594214	19.7344370134773	44.31070684830666	132.2385127450402	11.42391901000009	11.1312068969545	7.135549939468736	15.47221937501266	32.96365130834161	18.90752647207909	33.27993717414878	21.57394725949416	24.63246311779421	46.17669076372842	78.17744791362054
1.34	109.6789746816518	20.95229700800319	20.84944069458226	44.68358091195632	138.5108512953461	11.14868939948562	11.33575505267662	7.586266691983652	17.19677887297987	34.74423424436843	19.15079520660356	33.51222986484517	21.97465462279034	25.31511787158869	49.28618631253138	79.66821137286509
1.35	102.8728140464931	23.53216002822762	21.97175834529759	45.06277651373316	144.2544760494436	10.87508658633	11.49605054224537	8.024778934055716	18.91535618027439	36.49149272459393	19.33766339566634	33.57682629424829	22.28217206875282	25.90218405268562	52.29550087508024	81.1104154169972
1.36	95.83704456142173	26.20743502488203	23.1001929606097	45.43461321250411	149.3949018399555	10.60788756393144	11.61012275093617	8.445441245292223	20.60497327955095	38.18850231550862	19.46755108506531	33.47188174017723	22.49373843805028	26.38664913949766	55.1722676487011	82.49925886923232
1.37	88.6446003345762	28.95316476230078	24.23318986142644	45.78597174652917	153.8645074082196	10.35174183374572	11.67653840976643	8.842823611730989	22.24268657607337	39.81897183831505	19.54053155256177	33.19786673989937	22.60776349858249	26.76272888325426	57.88530194999569	83.83176296995184
1.38	81.36765615522303	31.74267737476936	25.36885561357601	46.1044999350819	157.60370391352	10.11113963653169	11.69440336473893	9.211772588668861	23.80585901539763	41.36739938520544	19.55732287373029	32.7575701104242	22.62385557898092	27.02596430104944	60.40502016013674	85.10660483248256
1.39	74.07649632352519	34.54787377775268	26.50498398164311	46.3787903872411	160.5619733692256	9.890394186934605	11.66336038657602	9.54747316533687	25.2724495787206	42.81920607363591	19.51926685455907	32.15604431737725	22.54282937244042	27.17329843837413	62.70384323067913	86.32389026441939
1.4	66.83848544856286	37.3395595307875	27.63908880903444	46.59852661262178	162.6987466776913	9.693636882842121	11.58358416266548	9.845510526828315	26.62131687631699	44.16084553708995	19.42829672257847	31.40049706326008	22.36669478720238	27.20313020363588	64.75657836292007	87.48487419952566
1.41	59.71715668821268	40.08781796974674	28.76844486191526	46.75459566212049	163.9840979721781	9.524824173878521	11.45577421920177	10.10193074434078	27.83253268405747	45.37988920000609	19.28689511791141	30.50013563782849	22.09862748112395	27.11534290233598	66.54077298630176	88.59163817488181
1.42	52.77142835718513	42.76241992411233	29.89013823035648	46.83916694372753	164.3992395158585	9.387754526138725	11.28114610349564	10.31329934150596	28.88770046443735	46.46509039266386	19.09804360748327	29.46597185608472	21.74292111621403	26.91130606989277	68.03703566502416	89.64673606482401
1.43	46.05495563625231	45.33326388029059	31.00112764855041	46.84573799130288	163.9368089889305	9.286093672063968	11.06142068868504	10.47675663944853	29.770273150364	47.40643292594611	18.86516459768617	28.31059585301855	21.30492093290421	26.59385033669586	69.22931868426656	90.65282120261497
1.44	39.61562026869728	47.77083909458766	32.09831736514495	46.76914867861959	162.6009484693383	9.223406043178322	10.79881097349739	10.59006873197269	30.46586365951413	48.1951706015993	18.59205653507621	27.04792705183652	20.79093839895319	26.16721595729852	70.10515672099362	91.61226938991632
1.45	33.49515771183206	50.04670285519791	33.17864131809737	46.60556598291821	160.4071812173118	9.203189932102578	10.49600530938271	10.65167286030634	30.96254067032764	48.82386334854968	18.28282362248343	25.6929503062172	20.20814750384524	25.6369762494525	70.65585569857983	92.52681300792331
1.46	27.72891827093064	52.13396185714838	34.23915744819221	46.35244208697539	157.3820977379405	9.228913547134869	10.15614568240353	10.66071582809463	31.25110118046258	49.28641425306433	17.94180156142852	24.26144449953931	19.5644644022184	25.00993761225551	70.87662623419375	93.39720161737272
1.47	22.34575624312525	54.00774664845243	35.27714995854749	46.00844918738464	153.5628663850716	9.304048771228844	9.782799662217094	10.61708395297353	31.32531047057892	49.5781105673184	17.5734808123342	22.7697099454839	18.86841309974239	24.2940181231378	70.76665691157447	94.22290385082276
1.48	17.36803898622712	55.64566741902276	36.29023617063908	45.5733946587632	148.9965864578945	9.43209918054591	9.379925091672906	10.52142298976503	31.18209956343085	49.6956710157151	17.18242867071123	21.23430004063972	18.12898049458867	23.49810708044912	70.32912341692669	95.00186383500854
1.49	12.8117661059227	57.02823891730515	37.27647338086275	45.04812039640063	143.7395036866502	9.616618768879757	8.951827487609812	10.37514656348843	30.82171050605404	49.63730090730765	16.77321139027529	19.67176189863298	17.35546437618052	22.63190835604879	69.57113034710886	95.73032290239615
1.5	8.686787653921373	58.13926201870465	38.23445981000748	44.43439062673214	137.8561095807191	9.861217950910554	8.503111060964235	10.18043192443456	30.2477813688195	49.40275515042855	16.35031780896973	18.09839010638981	16.55731807536919	21.70577101043735	68.50358395486519	96.40271406491613
1.51	4.997109323158794	58.96614989683485	39.16342241342805	43.73477328049359	131.418147777411	10.16955392536688	8.038624810632335	9.940202266807932	29.46736601166277	48.99340718509991	15.91808635149322	16.52999718778333	15.74399545529893	20.73051115202736	67.1409966996918	97.01163280103378
1.52	1.741272040674345	59.50018825474392	40.06328331196843	42.95252071650363	124.5035520010459	10.54530346766184	7.56340521321057	9.658095405375537	28.49088786454229	48.41231952995731	15.48063759410236	14.98170379150878	14.92479984572583	19.71722935907862	65.50122764586823	97.54788369944269
1.53	-1.087206933473703	59.73672140784947	40.93469670045283	42.09145575228516	117.1953406455982	10.99211757837537	7.08261683507274	9.338419183367304	27.33203095465447	47.66430967471981	15.04181453677676	13.46775104526431	14.10874031744662	18.67712809573691	63.60516545593358	98.00059908571603
1.54	-3.499344251628001	59.67525876401739	41.77905006355192	41.15586860760637	109.5804918920807	11.51355881892987	6.601491962016724	8.986094490286833	26.00757403361377	46.75600400442685	14.60513233674259	12.00133693050768	13.30439835041636	17.6213334384228	61.47636244256701	98.3574233056607
1.55	-5.510164536910196	59.31949943855231	42.59842713833233	40.15042970083875	101.7488207249094	12.11302331755135	6.125270169066019	8.606587187002376	24.53717466933737	45.6958726067635	14.17373868300861	10.59447791110502	12.51980750249614	16.56072506452674	59.14062895871175	98.60475503158359
1.56	-7.138150098649404	58.67727622163088	43.39553382993009	39.08012235103651	93.79187545190035	12.79365025976271	5.659138633109874	8.205830583413928	22.94311025429759	44.49423886267851	13.75038536895466	9.257896415025575	11.76234818360327	15.50577791189095	56.6255976716892	98.72803979153983
1.57	-8.404677407490505	57.76042307971928	44.17359061741178	37.95019831173767	85.80186692893597	13.55822231068151	5.20817389165255	7.790140375032579	21.24998284585638	43.16325898047165	13.33741100722727	8.000934182500695	11.03865911573802	14.46641834855799	53.96026731378334	98.71210529833334
1.58	-9.333450627644869	56.58457224397781	44.93619541774628	36.76615765768545	77.87063945577913	14.40906092041185	4.777285660470088	7.366124103476609	19.48439480784424	41.71686782441061	12.9367342759945	6.831491009244252	10.35456653567428	13.45189717242189	51.17453552082293	98.5415321719063
1.59	-9.949941638654026	55.16888798756102	45.68716025026323	35.53375287959514	70.08868883962711	15.34792073770993	4.371163246692054	6.940587256216335	17.67460210844204	40.1706887443373	12.54985665234531	5.75598803645231	9.71503168900292	12.47068125634609	48.29873041836737	98.20105211960698
1.6	-10.28084508297437	53.53574481292748	46.43032482371537	34.25901525959144	62.54423065149137	16.37588728259167	3.994225024864642	6.520438048526627	15.85015165939151	38.54190681788046	12.17787333510218	4.779354441586166	9.124116677911402	11.53036512627428	45.36315060164909	97.67596518367499
1.61	-10.35355610178515	51.71035792905716	47.16935146423702	32.94829997016977	55.32232023577345	17.49328164738709	3.650571370542208	6.112592736346472	14.04150834857695	36.84910681045997	11.82149101561799	3.905036137491796	8.584968263196656	10.63760320098485	42.39762287180373	96.95256764886466
1.62	-10.19567759224423	49.72037362511747	47.90750847483611	31.60834513183648	48.50402538731057	18.69957547750284	3.343941378988136	5.723883028405188	12.27967663230849	35.11207885820313	11.48105128961524	3.135024883848651	8.099818783821288	9.798062847687662	39.43108644106265	96.01858226187923
1.63	-9.83456299767602	47.59542691577391	48.64745165063815	30.24633937945394	42.16565245557245	19.99331897505611	3.077673652036698	5.360966854611244	10.59582086274516	33.35159596426267	11.15655868834713	2.469906052722242	7.670002947707578	9.016397855689997	36.49121138568633	94.86358212243422
1.64	-9.296899752069216	45.36667410467314	49.39101485823938	28.86999220101632	36.3780267477649	21.37208421750212	2.854671405333161	5.03024345673226	9.020887959823696	31.58916770826674	10.84771238416279	1.908923163872451	7.295988887113592	8.296241443066643	33.60405794474698	93.47939890981353
1.65	-8.60833749069905	43.0663085619443	50.13902008498767	27.48760127029238	31.20582842920496	22.83242565579707	2.677372107313611	4.737773528807636	7.585235546972934	29.84677442509966	10.55394053687029	1.450057212290448	6.977421599322351	7.640217507206922	30.7937818095862	91.86050499122142
1.66	-7.79316403758546	40.727068556442	50.89111582722877	26.10811124789301	26.70698558869572	24.36985917717137	2.54772180576852	4.48920495942588	6.318268217098298	28.14658602691398	10.27443608607894	1.090118752442071	6.713176732323232	7.049968507396685	28.08238892296149	90.00435737610275
1.67	-6.874031067607476	38.3817462004065	51.64565077966166	24.74115919706756	22.93212660300532	25.97886050500336	2.467154248062339	4.289704615049009	5.248084198939851	26.51066980013166	10.00819274971288	0.8248506874058095	6.501422623029686	6.526198118261467	25.48954169384257	87.911689789474
1.68	-5.871730275448259	36.06270648881	52.39958788137552	23.39710267877682	19.92409431641695	27.65288294760531	2.436574878024961	4.143896542610246	4.401134399701301	24.96069166775236	9.754040227229281	0.6490397452792478	6.339688560625526	6.068726608689771	23.0324170336378	85.58673809819439
